<svg width="207" height="60" viewBox="0 0 207 60" fill="none" xmlns="http://www.w3.org/2000/svg">
<circle cx="30" cy="30" r="30" fill="#0266CC"/>
<path d="M21 18V39.3333C21 40.0406 21.281 40.7189 21.781 41.219C22.2811 41.719 22.9594 42 23.6667 42H45" stroke="white" stroke-width="2.66667" stroke-linecap="round" stroke-linejoin="round"/>
<path d="M41 36.6667V26" stroke="white" stroke-width="2.66667" stroke-linecap="round" stroke-linejoin="round"/>
<path d="M34.334 36.6665V20.6665" stroke="white" stroke-width="2.66667" stroke-linecap="round" stroke-linejoin="round"/>
<path d="M27.666 36.6665V32.6665" stroke="white" stroke-width="2.66667" stroke-linecap="round" stroke-linejoin="round"/>
<path d="M63.517 39V21.5455H70.4034C71.7216 21.5455 72.8466 21.7812 73.7784 22.2528C74.7159 22.7187 75.429 23.3807 75.9176 24.2386C76.4119 25.0909 76.6591 26.0937 76.6591 27.2472C76.6591 28.4062 76.4091 29.4034 75.9091 30.2386C75.4091 31.0682 74.6847 31.7045 73.7358 32.1477C72.7926 32.5909 71.6506 32.8125 70.3097 32.8125H65.6989V29.8466H69.7131C70.4176 29.8466 71.0028 29.75 71.4688 29.5568C71.9347 29.3636 72.2813 29.0739 72.5085 28.6875C72.7415 28.3011 72.858 27.821 72.858 27.2472C72.858 26.6676 72.7415 26.179 72.5085 25.7812C72.2813 25.3835 71.9318 25.0824 71.4602 24.8778C70.9943 24.6676 70.4063 24.5625 69.696 24.5625H67.2074V39H63.517ZM72.9432 31.0568L77.2812 39H73.2074L68.9631 31.0568H72.9432ZM84.9538 39.2557C83.6072 39.2557 82.4482 38.983 81.4766 38.4375C80.5107 37.8864 79.7663 37.108 79.2436 36.1023C78.7209 35.0909 78.4595 33.8949 78.4595 32.5142C78.4595 31.1676 78.7209 29.9858 79.2436 28.9688C79.7663 27.9517 80.5021 27.1591 81.451 26.5909C82.4055 26.0227 83.5249 25.7386 84.8089 25.7386C85.6726 25.7386 86.4766 25.8778 87.2209 26.1562C87.9709 26.429 88.6243 26.8409 89.1811 27.392C89.7436 27.9432 90.1811 28.6364 90.4936 29.4716C90.8061 30.3011 90.9624 31.2727 90.9624 32.3864V33.3835H79.9084V31.1335H87.5447C87.5447 30.6108 87.4311 30.1477 87.2038 29.7443C86.9766 29.3409 86.6612 29.0256 86.2578 28.7983C85.8601 28.5653 85.397 28.4489 84.8686 28.4489C84.3175 28.4489 83.8288 28.5767 83.4027 28.8324C82.9822 29.0824 82.6527 29.4205 82.4141 29.8466C82.1754 30.267 82.0533 30.7358 82.0476 31.2528V33.392C82.0476 34.0398 82.1669 34.5994 82.4055 35.071C82.6499 35.5426 82.9936 35.9062 83.4368 36.1619C83.88 36.4176 84.4055 36.5455 85.0135 36.5455C85.4169 36.5455 85.7862 36.4886 86.1214 36.375C86.4567 36.2614 86.7436 36.0909 86.9822 35.8636C87.2209 35.6364 87.4027 35.358 87.5277 35.0284L90.8857 35.25C90.7152 36.0568 90.3658 36.7614 89.8374 37.3636C89.3146 37.9602 88.6385 38.4261 87.8089 38.7614C86.9851 39.0909 86.0334 39.2557 84.9538 39.2557ZM105.185 25.9091L100.608 39H96.517L91.9403 25.9091H95.7756L98.4943 35.2756H98.6307L101.341 25.9091H105.185ZM107.043 39V25.9091H110.673V39H107.043ZM108.866 24.2216C108.327 24.2216 107.864 24.0426 107.477 23.6847C107.097 23.321 106.906 22.8864 106.906 22.3807C106.906 21.8807 107.097 21.4517 107.477 21.0938C107.864 20.7301 108.327 20.5483 108.866 20.5483C109.406 20.5483 109.866 20.7301 110.247 21.0938C110.634 21.4517 110.827 21.8807 110.827 22.3807C110.827 22.8864 110.634 23.321 110.247 23.6847C109.866 24.0426 109.406 24.2216 108.866 24.2216ZM119.548 39.2557C118.201 39.2557 117.042 38.983 116.07 38.4375C115.104 37.8864 114.36 37.108 113.837 36.1023C113.315 35.0909 113.053 33.8949 113.053 32.5142C113.053 31.1676 113.315 29.9858 113.837 28.9688C114.36 27.9517 115.096 27.1591 116.045 26.5909C116.999 26.0227 118.119 25.7386 119.403 25.7386C120.266 25.7386 121.07 25.8778 121.815 26.1562C122.565 26.429 123.218 26.8409 123.775 27.392C124.337 27.9432 124.775 28.6364 125.087 29.4716C125.4 30.3011 125.556 31.2727 125.556 32.3864V33.3835H114.502V31.1335H122.138C122.138 30.6108 122.025 30.1477 121.798 29.7443C121.57 29.3409 121.255 29.0256 120.852 28.7983C120.454 28.5653 119.991 28.4489 119.462 28.4489C118.911 28.4489 118.423 28.5767 117.996 28.8324C117.576 29.0824 117.246 29.4205 117.008 29.8466C116.769 30.267 116.647 30.7358 116.641 31.2528V33.392C116.641 34.0398 116.761 34.5994 116.999 35.071C117.244 35.5426 117.587 35.9062 118.031 36.1619C118.474 36.4176 118.999 36.5455 119.607 36.5455C120.011 36.5455 120.38 36.4886 120.715 36.375C121.05 36.2614 121.337 36.0909 121.576 35.8636C121.815 35.6364 121.996 35.358 122.121 35.0284L125.479 35.25C125.309 36.0568 124.96 36.7614 124.431 37.3636C123.908 37.9602 123.232 38.4261 122.403 38.7614C121.579 39.0909 120.627 39.2557 119.548 39.2557ZM130.414 39L126.852 25.9091H130.525L132.553 34.7045H132.673L134.786 25.9091H138.391L140.539 34.6534H140.65L142.644 25.9091H146.309L142.755 39H138.911L136.661 30.767H136.499L134.249 39H130.414ZM152.004 21.5455V39H148.314V21.5455H152.004ZM161.629 32.9318H164.765L166.342 34.9602L167.893 36.767L170.816 40.4318H167.373L165.362 37.9602L164.33 36.4943L161.629 32.9318ZM171.08 30.2727C171.08 32.1761 170.719 33.7955 169.998 35.1307C169.282 36.4659 168.305 37.4858 167.066 38.1903C165.833 38.8892 164.447 39.2386 162.907 39.2386C161.356 39.2386 159.964 38.8864 158.731 38.1818C157.498 37.4773 156.523 36.4574 155.808 35.1222C155.092 33.7869 154.734 32.1705 154.734 30.2727C154.734 28.3693 155.092 26.75 155.808 25.4148C156.523 24.0795 157.498 23.0625 158.731 22.3636C159.964 21.6591 161.356 21.3068 162.907 21.3068C164.447 21.3068 165.833 21.6591 167.066 22.3636C168.305 23.0625 169.282 24.0795 169.998 25.4148C170.719 26.75 171.08 28.3693 171.08 30.2727ZM167.339 30.2727C167.339 29.0398 167.154 28 166.785 27.1534C166.421 26.3068 165.907 25.6648 165.242 25.2273C164.577 24.7898 163.799 24.571 162.907 24.571C162.015 24.571 161.237 24.7898 160.572 25.2273C159.907 25.6648 159.39 26.3068 159.021 27.1534C158.657 28 158.475 29.0398 158.475 30.2727C158.475 31.5057 158.657 32.5455 159.021 33.392C159.39 34.2386 159.907 34.8807 160.572 35.3182C161.237 35.7557 162.015 35.9744 162.907 35.9744C163.799 35.9744 164.577 35.7557 165.242 35.3182C165.907 34.8807 166.421 34.2386 166.785 33.392C167.154 32.5455 167.339 31.5057 167.339 30.2727Z" fill="#0A0A0A"/>
</svg>
