<svg width="30" height="30" viewBox="0 0 30 30" fill="none" xmlns="http://www.w3.org/2000/svg">
<path d="M21.25 18.75V21.25M21.2613 23.75H21.25M27.5 21.25C27.5 24.7017 24.7017 27.5 21.25 27.5C17.7983 27.5 15 24.7017 15 21.25C15 17.7983 17.7983 15 21.25 15C24.7017 15 27.5 17.7983 27.5 21.25Z" stroke="#22D3EE" stroke-width="3" stroke-linecap="round"/>
<path d="M17.98 11.7969C17.1989 11.0698 16.1514 10.625 15 10.625C12.5838 10.625 10.625 12.5838 10.625 15C10.625 16.1514 11.0698 17.1989 11.7969 17.98" stroke="#22D3EE" stroke-width="3" stroke-linecap="round"/>
<path d="M12.225 25.545C11.668 24.9881 11.4855 24.8208 11.1322 24.6736C10.7769 24.5255 10.4071 24.5201 9.61464 24.5201C7.72975 24.5201 6.65104 24.5201 6.06549 23.9345C5.47992 23.349 5.47992 22.2703 5.47992 20.3854C5.47992 19.5971 5.47476 19.2272 5.32873 18.8734C5.18216 18.5184 4.92456 18.2527 4.36457 17.6926C3.65948 16.9875 2.5 16.1074 2.5 15C2.5 13.8926 3.65945 13.0124 4.36457 12.3073C4.92195 11.7499 5.17972 11.485 5.32671 11.1314C5.47438 10.7762 5.47992 10.4066 5.47992 9.61464C5.47992 7.72975 5.47992 6.65104 6.06549 6.06549C6.65104 5.47992 7.72975 5.47993 9.61464 5.47993C10.4011 5.47993 10.7708 5.475 11.1241 5.32974C11.4807 5.18314 11.7461 4.9258 12.3073 4.36457C13.0124 3.65945 14.0129 2.5 15 2.5C15.9871 2.5 16.9875 3.65949 17.6926 4.36459C18.2536 4.92546 18.5194 5.18296 18.8751 5.32944C19.2284 5.4749 19.5984 5.47993 20.3854 5.47993C22.2702 5.47993 23.349 5.47992 23.9345 6.06549C24.5201 6.65104 24.5201 7.72975 24.5201 9.61464C24.5201 10.4048 24.5253 10.7745 24.6723 11.129C24.8193 11.4837 24.9864 11.6514 25.545 12.21" stroke="#22D3EE" stroke-width="1.5" stroke-linecap="round"/>
</svg>
