<svg width="30" height="30" viewBox="0 0 30 30" fill="none" xmlns="http://www.w3.org/2000/svg">
<path d="M16.2394 26.25C17.1401 26.25 17.4906 26.2445 17.4906 26.2445C21.761 26.2137 24.1152 26.0124 25.6677 24.694C27.5 23.138 27.5 20.6337 27.5 15.625C27.5 13.8867 27.5 12.4501 27.4234 11.25M14.9883 5C9.09016 5 6.14112 5 4.30882 6.556C2.90533 7.74784 2.57687 9.49609 2.5 12.5" stroke="#0266CC" stroke-width="3" stroke-linecap="round" stroke-linejoin="round"/>
<path d="M17.5 8.75C17.5 8.75 18.75 8.75 20 11.25C20 11.25 23.9706 5 27.5 3.75" stroke="#0266CC" stroke-width="3" stroke-linecap="round" stroke-linejoin="round"/>
<path d="M3.72852 25H3.73974" stroke="#0266CC" stroke-width="3" stroke-linecap="round" stroke-linejoin="round"/>
<path d="M2.5 20.2936C5.6166 20.2936 8.46316 23.125 8.46316 26.2495M12.5 26.2495C12.5 20.625 7.49389 16.25 2.55652 16.25" stroke="#0266CC" stroke-width="3" stroke-linecap="round"/>
</svg>
