<svg width="287" height="219" viewBox="0 0 287 219" fill="none" xmlns="http://www.w3.org/2000/svg">
<path d="M115.583 63.6359V59.253L106.733 57.9891C106.093 54.1108 104.475 50.5639 102.14 47.6082L108.235 40.5763L105.136 37.4772L97.5176 43.1907C94.594 41.0933 91.156 39.6686 87.4261 39.1467L86.7335 29.4658H82.3507L80.9656 39.1566C77.2827 39.6834 73.8842 41.0883 70.9903 43.1561L63.674 36.8143L60.5748 39.9135L66.3329 47.5909C64.0574 50.465 62.462 53.9006 61.7818 57.6577L52.5635 58.3156V62.6985L61.5271 63.9797C61.9179 68.0039 63.3549 71.7214 65.5612 74.8577L59.912 81.3776L63.0111 84.4768L69.7808 79.3989C72.885 81.944 76.6742 83.6853 80.8295 84.3061L81.4132 92.4881H85.7961L86.9512 84.3976C91.1807 83.8955 95.0541 82.2359 98.2472 79.7452L104.473 85.1396L107.572 82.0405L102.548 75.3425C104.901 72.179 106.452 68.3823 106.904 64.2592L115.583 63.6359ZM84.2305 72.2705C78.413 72.2705 73.6962 67.5612 73.6962 61.7437C73.6962 55.9263 78.413 51.2095 84.2305 51.2095C90.0479 51.2095 94.7647 55.9263 94.7647 61.7437C94.7647 67.5587 90.0479 72.2705 84.2305 72.2705ZM84.2305 78.9339C74.7301 78.9339 67.0304 71.2441 67.0304 61.7437C67.0304 52.2434 74.7301 44.5437 84.2305 44.5437C93.7308 44.5437 101.43 52.2434 101.43 61.7437C101.43 71.2441 93.7308 78.9339 84.2305 78.9339Z" stroke="#211D1D" stroke-width="0.621838" stroke-miterlimit="10"/>
<path d="M67.4428 218.254H50.876L74.868 124.289H91.4373L67.4428 218.254Z" fill="#F3D63B"/>
<path d="M101.367 218.254H84.7979L108.792 124.289H125.359L101.367 218.254Z" fill="#F3D63B"/>
<path d="M44.8115 164.183L49.0435 147.613H143.008L138.776 164.183H44.8115Z" fill="#F3D63B"/>
<path d="M35.918 199.018L40.1475 182.448H134.112L129.883 199.018H35.918Z" fill="#F3D63B"/>
<path d="M138.776 164.183L143.005 147.613H119.404L125.36 124.289H108.791L102.835 147.613H85.4815L91.4374 124.289H74.8706L68.9146 147.613H58.002C59.3203 149.518 60.7004 151.378 62.1301 153.191C63.4533 154.868 64.8236 156.505 66.2334 158.113V158.115C66.2903 158.182 66.3497 158.244 66.409 158.311C66.785 158.739 67.1659 159.164 67.5493 159.587C67.6655 159.716 67.7818 159.847 67.9005 159.975C68.3828 160.502 68.8651 161.027 69.3549 161.546C69.3969 161.59 69.439 161.632 69.481 161.677C69.9213 162.142 70.364 162.605 70.8092 163.062C70.9873 163.245 71.1654 163.426 71.3435 163.606C71.5315 163.799 71.7194 163.992 71.9099 164.183H71.9173C74.3437 166.619 76.8592 168.966 79.4562 171.222L81.2544 164.183H98.6078L93.943 182.451H93.4829C93.6115 182.548 93.7402 182.642 93.8688 182.738V182.743C94.2596 183.035 94.6528 183.324 95.0486 183.614C95.1055 183.656 95.1624 183.698 95.2192 183.74C95.7807 184.148 96.3446 184.556 96.9135 184.954C97.4082 185.301 97.9029 185.644 98.4025 185.986C98.5905 186.114 98.776 186.24 98.964 186.367C99.2707 186.574 99.5774 186.782 99.8841 186.99C100.124 187.151 100.361 187.309 100.601 187.467C100.851 187.633 101.101 187.796 101.351 187.962C101.628 188.145 101.905 188.325 102.184 188.506C102.382 188.635 102.58 188.761 102.778 188.887C103.1 189.095 103.424 189.3 103.748 189.505C103.846 189.57 103.948 189.631 104.049 189.693C105.368 190.524 106.698 191.338 108.039 192.135C108.039 192.135 108.041 192.135 108.041 192.137C108.739 192.553 109.441 192.963 110.144 193.366C113.641 195.375 117.213 197.269 120.854 199.02H129.884L134.114 182.451H110.512L115.177 164.183H138.776Z" fill="#211D1D"/>
<path d="M190.507 189.945C189.323 189.945 188.355 188.976 188.355 187.793C188.355 186.609 189.325 185.642 190.507 185.642C191.692 185.642 192.659 186.611 192.659 187.793C192.662 188.976 191.692 189.945 190.507 189.945Z" fill="#211D1D"/>
<path d="M197.737 189.945C196.552 189.945 195.585 188.976 195.585 187.793C195.585 186.609 196.555 185.642 197.737 185.642C198.922 185.642 199.889 186.611 199.889 187.793C199.889 188.976 198.919 189.945 197.737 189.945Z" fill="#211D1D"/>
<path d="M205.034 189.945C203.849 189.945 202.882 188.976 202.882 187.793C202.882 186.609 203.851 185.642 205.034 185.642C206.218 185.642 207.186 186.611 207.186 187.793C207.188 188.976 206.218 189.945 205.034 189.945Z" fill="#211D1D"/>
<path d="M32.3882 89.5694C31.2034 89.5694 30.2363 88.5998 30.2363 87.4175C30.2363 86.2327 31.2059 85.2656 32.3882 85.2656C33.5729 85.2656 34.54 86.2352 34.54 87.4175C34.5425 88.5998 33.5729 89.5694 32.3882 89.5694Z" fill="#211D1D"/>
<path d="M39.6177 89.5694C38.4329 89.5694 37.4658 88.5998 37.4658 87.4175C37.4658 86.2327 38.4354 85.2656 39.6177 85.2656C40.8024 85.2656 41.7695 86.2352 41.7695 87.4175C41.7695 88.5998 40.8024 89.5694 39.6177 89.5694Z" fill="#211D1D"/>
<path d="M46.9146 89.5694C45.7298 89.5694 44.7627 88.5998 44.7627 87.4175C44.7627 86.2327 45.7323 85.2656 46.9146 85.2656C48.0993 85.2656 49.0664 86.2352 49.0664 87.4175C49.0689 88.5998 48.0993 89.5694 46.9146 89.5694Z" fill="#211D1D"/>
<path d="M219.37 114.16C219.37 120.702 218.497 127.041 216.865 133.066C215.378 138.547 213.261 143.771 210.595 148.651C208.928 151.701 207.048 154.617 204.973 157.38C200.778 162.967 195.789 167.926 190.174 172.087C178.198 180.961 163.375 186.21 147.325 186.21C122.067 186.21 99.8482 173.212 86.9914 153.539C82.7817 147.113 79.5737 139.972 77.5876 132.342C76.0763 126.534 75.2725 120.44 75.2725 114.157C75.2725 104.417 77.2042 95.1292 80.709 86.6554C81.3669 85.0551 82.0867 83.482 82.8584 81.9435C94.6837 58.3225 119.111 42.1094 147.323 42.1094C175.435 42.1094 199.781 58.2063 211.653 81.6863C216.59 91.4463 219.37 102.475 219.37 114.16Z" fill="#D3CECC"/>
<path d="M137.406 65.7031C137.013 67.8055 136.87 69.9524 136.986 72.0894C133.545 66.3264 126.689 63.5958 120.14 62.1315C116.14 61.2386 111.614 60.7637 108.24 63.0887C105.015 65.3098 103.756 69.6061 104.132 73.5042C104.505 77.4023 106.237 81.0209 107.938 84.5455C97.1419 79.5987 85.1335 80.4594 73.8968 84.3006C69.2246 85.8984 64.6884 88.3347 61.5694 92.1611C54.3025 101.078 57.1222 115.203 65.0346 123.554C72.947 131.904 84.5102 135.653 95.7568 138.067C106.59 140.392 118.66 141.572 128.077 135.733C136.016 130.81 140.518 121.689 142.351 112.527C144.184 103.366 143.743 93.9296 144.06 84.5925C144.151 81.8717 144.292 79.0496 143.268 76.5267C142.242 74.0038 139.665 71.8767 136.981 72.3417L137.406 65.7031Z" fill="#211D1D"/>
<path d="M158.652 65.7031C159.045 67.8055 159.188 69.9524 159.072 72.0894C162.513 66.3264 169.369 63.5958 175.919 62.1315C179.918 61.2386 184.444 60.7637 187.818 63.0887C191.043 65.3098 192.302 69.6061 191.926 73.5042C191.553 77.4023 189.822 81.0209 188.12 84.5455C198.916 79.5987 210.925 80.4594 222.161 84.3006C226.834 85.8984 231.37 88.3347 234.491 92.1611C241.758 101.078 238.936 115.203 231.026 123.554C223.114 131.904 211.55 135.653 200.304 138.067C189.47 140.392 177.4 141.572 167.984 135.733C160.044 130.81 155.543 121.689 153.71 112.527C151.877 103.366 152.317 93.9296 152.001 84.5925C151.909 81.8717 151.768 79.0496 152.792 76.5267C153.819 74.0038 156.396 71.8767 159.08 72.3417L158.652 65.7031Z" fill="#211D1D"/>
<path d="M210.592 148.651C208.925 151.701 207.045 154.617 204.97 157.38C200.775 162.967 195.786 167.926 190.171 172.086C178.195 180.961 163.372 186.209 147.322 186.209C122.064 186.209 99.845 173.212 86.9883 153.538C91.7669 148.893 96.3674 144.001 100.481 138.98C100.701 138.718 100.914 138.456 101.126 138.188C104.535 133.974 108.22 129.348 112.803 126.798C114.812 125.47 116.983 124.345 119.286 123.459C123.021 122.032 126.857 120.907 130.758 120.071C131.119 119.994 131.49 119.917 131.856 119.851C131.861 119.851 131.866 119.848 131.868 119.848C134.787 119.267 137.74 118.854 140.706 118.609C145.591 118.201 150.515 118.248 155.395 118.745C158.106 119.022 160.802 119.435 163.468 119.994C163.52 120.009 163.575 120.014 163.627 120.029C163.632 120.029 163.632 120.031 163.637 120.031C164.576 120.227 165.506 120.442 166.432 120.672C167.836 121.025 169.222 121.409 170.589 121.839C171.153 122.012 171.717 122.2 172.279 122.396C176.32 122.744 180.26 123.751 184.008 125.29C188.517 127.142 192.744 129.764 196.523 132.94C198.309 134.441 199.993 136.064 201.564 137.79C202.776 139.126 203.921 140.518 204.984 141.965C206.691 144.275 208.618 146.531 210.592 148.651Z" fill="#F3D63B"/>
<path d="M165.735 121.455C158.681 117.602 153.361 105.856 155.577 96.625L141.818 97.3274C142.28 103.585 140.145 110.859 137.116 115.457C135.535 117.854 132.339 119.976 129.579 120.765C133.564 126.103 140.462 128.772 147.12 128.94C153.779 129.106 161.486 126.583 165.735 121.455Z" fill="#EF473F"/>
<path d="M151.525 104.036C153.375 102.186 154.261 99.3981 154.637 96.6699L142.126 97.3105C141.486 102.057 147.224 108.337 151.525 104.036Z" fill="#211D1D"/>
<path d="M160.639 71.3095V89.4173C160.639 93.7111 158.442 97.5202 155.113 99.7685C154.242 100.36 153.29 100.842 152.281 101.198C150.985 101.658 149.595 101.905 148.15 101.905C146.288 101.905 144.522 101.492 142.929 100.75C138.786 98.8286 135.855 94.698 135.674 89.8922C135.665 89.7339 135.662 89.5756 135.662 89.4173V71.3095C135.662 64.4409 141.282 58.8213 148.15 58.8213C151.583 58.8213 154.705 60.2287 156.97 62.4893C159.236 64.755 160.639 67.8739 160.639 71.3095Z" fill="#EF473F"/>
<path d="M170.638 84.6335C170.638 87.7698 168.093 90.31 164.962 90.31C163.228 90.31 161.679 89.5383 160.641 88.3139C159.795 87.3221 159.285 86.0359 159.285 84.6335C159.285 83.6417 159.537 82.7067 159.988 81.8954C160.173 81.5566 160.391 81.2425 160.641 80.9555C160.997 80.5351 161.412 80.1715 161.877 79.8697C162.765 79.2909 163.821 78.957 164.962 78.957C168.093 78.9595 170.638 81.5022 170.638 84.6335Z" fill="#EF473F"/>
<path d="M138.165 85.1979C138.165 87.1495 137.179 88.8734 135.677 89.8949C134.767 90.5133 133.669 90.8744 132.489 90.8744C129.358 90.8744 126.812 88.3293 126.812 85.1979C126.812 82.0617 129.358 79.5215 132.489 79.5215C133.05 79.5215 133.595 79.6031 134.107 79.7565C134.201 79.7812 134.295 79.8109 134.386 79.8455C134.841 80.0038 135.269 80.2239 135.665 80.4886C137.176 81.5126 138.165 83.2365 138.165 85.1979Z" fill="#EF473F"/>
<path d="M134.106 79.7568C134.2 79.7816 134.294 79.8112 134.386 79.8459C134.299 79.8756 134.215 79.9052 134.129 79.9349C134.119 79.878 134.114 79.8187 134.106 79.7568Z" fill="#2D201B"/>
<path d="M148.069 67.7163C149.34 72.5642 151.01 75.8242 154.27 78.765C156.416 80.7017 159.803 83.1281 162.219 83.6129L162.026 72.6137C162.026 68.7947 160.468 65.327 157.948 62.8091C155.43 60.2961 151.957 58.7305 148.143 58.7305C140.508 58.7305 134.26 64.9783 134.26 72.6137V81.5377C144.571 79.4007 147.915 67.1277 148.069 67.7163Z" fill="#211D1D"/>
<path d="M108.491 151.077C109.456 160.842 112.347 170.414 116.95 179.081" stroke="#472A1C" stroke-width="0.619934" stroke-miterlimit="10" stroke-linecap="round" stroke-linejoin="round"/>
<path d="M186.443 150.383C185.689 160.148 183.428 169.72 179.829 178.387" stroke="#472A1C" stroke-width="0.54823" stroke-miterlimit="10" stroke-linecap="round" stroke-linejoin="round"/>
<path d="M144.686 90.873C144.671 90.9942 144.664 91.1154 144.664 91.2391C144.664 92.8938 146.005 94.2369 147.662 94.2369C149.317 94.2369 150.66 92.8963 150.66 91.2391C150.66 91.1154 150.652 90.9918 150.637 90.873H144.686Z" fill="white"/>
<path d="M144.896 92.3984C145.349 93.4768 146.418 94.2362 147.662 94.2362C148.906 94.2362 149.972 93.4768 150.425 92.3984H144.896Z" fill="#211D1D"/>
<path d="M145.305 87.2571C144.83 86.9578 144.333 86.6907 143.829 86.4557C142.102 85.6395 140.304 85.1671 139.122 84.9148C138.306 84.7392 137.781 84.6724 137.781 84.6724C138.303 84.4201 138.795 84.2445 139.255 84.1282C141.751 83.495 143.388 84.6526 144.323 85.7359C144.976 86.4903 145.286 87.2101 145.305 87.2571Z" fill="white"/>
<path d="M144.322 85.7359C144.206 86.0031 144.038 86.2455 143.828 86.4557C142.101 85.6395 140.303 85.1671 139.121 84.9148C139.118 84.9024 139.118 84.89 139.118 84.8777C139.118 84.618 139.165 84.3657 139.254 84.1282C141.747 83.495 143.387 84.6526 144.322 85.7359Z" fill="#211D1D"/>
<path d="M150.967 87.2571C151.442 86.9578 151.939 86.6907 152.443 86.4557C154.17 85.6395 155.968 85.1671 157.15 84.9148C157.967 84.7392 158.491 84.6724 158.491 84.6724C157.969 84.4201 157.477 84.2445 157.017 84.1282C154.521 83.495 152.884 84.6526 151.949 85.7359C151.296 86.4903 150.987 87.2101 150.967 87.2571Z" fill="white"/>
<path d="M151.945 85.7359C152.062 86.0031 152.23 86.2455 152.44 86.4557C154.166 85.6395 155.965 85.1671 157.147 84.9148C157.149 84.9024 157.149 84.89 157.149 84.8777C157.149 84.618 157.102 84.3657 157.013 84.1282C154.518 83.495 152.88 84.6526 151.945 85.7359Z" fill="#211D1D"/>
<path d="M147.319 86.0645V88.5675L145.685 88.8223L147.319 89.9329" stroke="#211D1D" stroke-width="0.38083" stroke-miterlimit="10" stroke-linecap="round" stroke-linejoin="round"/>
<path d="M150.968 82.6884C150.968 82.6884 154.413 80.5612 157.46 82.3075" stroke="#211D1D" stroke-width="0.38083" stroke-miterlimit="10" stroke-linecap="round" stroke-linejoin="round"/>
<path d="M144.657 82.4491C144.657 82.4491 141.211 80.322 138.164 82.0682" stroke="#211D1D" stroke-width="0.38083" stroke-miterlimit="10" stroke-linecap="round" stroke-linejoin="round"/>
<path d="M158.285 89.7647C158.285 90.8505 156.935 91.7336 155.27 91.7336C153.605 91.7336 152.255 90.853 152.255 89.7647C152.255 88.6789 153.605 87.7959 155.27 87.7959C156.935 87.7984 158.285 88.6789 158.285 89.7647Z" fill="#FF91A5"/>
<path d="M142.862 89.7647C142.862 90.8505 141.512 91.7336 139.847 91.7336C138.183 91.7336 136.832 90.853 136.832 89.7647C136.832 88.6789 138.183 87.7959 139.847 87.7959C141.512 87.7984 142.862 88.6789 142.862 89.7647Z" fill="#FF91A5"/>
<path d="M164.25 94.2391C166.598 94.2391 168.502 90.6091 168.502 86.1313C168.502 81.6534 166.598 78.0234 164.25 78.0234C161.902 78.0234 159.998 81.6534 159.998 86.1313C159.998 90.6091 161.902 94.2391 164.25 94.2391Z" fill="white"/>
<path d="M164.962 78.96C164.962 78.96 160.277 86.2689 164.962 92.5563" stroke="#211D1D" stroke-width="0.571257" stroke-miterlimit="10" stroke-linecap="round" stroke-linejoin="round"/>
<path d="M154.548 101.906C154.548 101.906 162.01 101.906 164.246 94.2363" stroke="#F5F5F3" stroke-width="0.973012" stroke-miterlimit="10" stroke-linecap="round" stroke-linejoin="round"/>
<path d="M156.078 101.907C156.078 103.678 154.643 105.112 152.873 105.112C151.102 105.112 149.667 103.678 149.667 101.907C149.667 100.136 151.102 98.7012 152.873 98.7012C154.643 98.7012 156.078 100.138 156.078 101.907Z" fill="#75CFDD"/>
<path d="M163.612 79.5473C163.092 79.5473 162.667 79.1293 162.659 78.6074C162.578 72.8716 161.019 68.5505 158.022 65.7581C154.089 62.0949 148.929 62.3448 148.877 62.3472C148.843 62.3497 148.803 62.3497 148.769 62.3472C144.789 62.1296 141.633 63.0917 139.394 65.2065C135.744 68.6544 135.682 74.0959 135.682 74.1503C135.679 74.6747 135.254 75.1001 134.73 75.1001C134.73 75.1001 134.73 75.1001 134.727 75.1001C134.203 75.1001 133.777 74.6747 133.777 74.1478C133.777 73.8931 133.827 67.8555 138.071 63.8337C140.695 61.348 144.312 60.2053 148.821 60.4402C149.488 60.4106 154.942 60.3042 159.295 64.3408C162.701 67.4993 164.472 72.2878 164.561 78.5777C164.569 79.1045 164.148 79.5349 163.621 79.5423C163.621 79.5473 163.616 79.5473 163.612 79.5473Z" fill="white"/>
<path d="M118.454 66.2178C118.454 66.2178 104.647 63.6974 112.169 81.3822" stroke="#F5F5F3" stroke-width="0.973012" stroke-miterlimit="10" stroke-linecap="round" stroke-linejoin="round"/>
<path d="M78.1797 87.999C78.1797 87.999 87.7889 81.3678 100.742 86.4556" stroke="#F5F5F3" stroke-width="0.973012" stroke-miterlimit="10" stroke-linecap="round" stroke-linejoin="round"/>
<path d="M64.9443 96.1141C64.9443 96.1141 69.4187 91.2588 72.8468 90.3115" stroke="#F5F5F3" stroke-width="0.973012" stroke-miterlimit="10" stroke-linecap="round" stroke-linejoin="round"/>
<path d="M167.108 69.391C167.108 69.391 173.836 64.8202 178.788 65.3297" stroke="#F5F5F3" stroke-width="0.973012" stroke-miterlimit="10" stroke-linecap="round" stroke-linejoin="round"/>
<path d="M187.8 92.3986C187.8 92.3986 195.796 85.6586 209.38 87.9984" stroke="#F5F5F3" stroke-width="0.973012" stroke-miterlimit="10" stroke-linecap="round" stroke-linejoin="round"/>
<path d="M216.108 89.7646C216.108 89.7646 220.17 90.3731 223.598 93.2101" stroke="#F5F5F3" stroke-width="0.973012" stroke-miterlimit="10" stroke-linecap="round" stroke-linejoin="round"/>
<path d="M204.972 157.381C200.777 162.968 195.788 167.927 190.173 172.087L184.947 139.978L184.472 137.057C184.037 134.378 183.072 125.437 183.072 125.437L184.015 125.291L193.386 123.849L196.528 132.941L198.435 138.457L204.972 157.381Z" fill="#EF473F"/>
<path d="M192.255 116.153C191.666 116.106 191.07 116.106 190.484 116.129C190.444 114.882 190.236 113.561 188.413 113.413C187.172 113.311 185.935 114.523 185.144 115.486C185.522 112.483 186.237 105.199 184.419 104.835C182.077 103.922 182.114 110.049 181.943 112.374C181.708 115.555 181.33 120.16 181.097 123.341C178.831 120.907 176.536 115.179 173.964 115.874C173.363 116.037 172.739 116.485 172.509 117.093C172.22 117.863 172.725 118.639 173.128 119.265C177.135 125.513 181.535 131.508 186.294 137.205C186.764 137.766 187.261 138.345 187.934 138.637C189.526 139.329 191.312 138.159 192.45 136.851C194.896 134.036 196.111 130.45 196.981 126.779C197.619 123.178 199.808 118.637 192.255 116.153Z" fill="#EF473F"/>
<path d="M184.88 118.338L185.06 124.489C185.083 125.254 185.572 125.926 186.292 126.184L191.966 128.212C193.015 128.585 194.135 127.883 194.257 126.777L194.813 121.66" stroke="#211D1D" stroke-width="0.38083" stroke-miterlimit="10" stroke-linecap="round" stroke-linejoin="round"/>
<path d="M196.21 122.55L194.488 124.64" stroke="#211D1D" stroke-width="0.38083" stroke-miterlimit="10" stroke-linecap="round" stroke-linejoin="round"/>
<path d="M188.181 127.089C188.181 127.089 185.611 129.374 187.006 133.055" stroke="#211D1D" stroke-width="0.38083" stroke-miterlimit="10" stroke-linecap="round" stroke-linejoin="round"/>
<path d="M188.182 126.643L188.036 120.818C188.026 120.46 188.132 120.106 188.335 119.809L189.07 118.743" stroke="#211D1D" stroke-width="0.38083" stroke-miterlimit="10" stroke-linecap="round" stroke-linejoin="round"/>
<path d="M191.18 127.803L191.034 121.978C191.024 121.62 191.13 121.266 191.333 120.969L192.068 119.903" stroke="#211D1D" stroke-width="0.38083" stroke-miterlimit="10" stroke-linecap="round" stroke-linejoin="round"/>
<path d="M246.874 68.1036C259.412 55.566 259.412 35.2386 246.874 22.7011C234.337 10.1635 214.009 10.1635 201.472 22.7011C188.934 35.2386 188.934 55.5661 201.472 68.1036C214.009 80.6412 234.337 80.6412 246.874 68.1036Z" fill="#75CFDD"/>
<path d="M195.317 76.3584C195.317 76.3584 202.916 72.3589 203.297 63.6006L210.591 72.3589C210.593 72.3589 205.81 76.7393 195.317 76.3584Z" fill="#75CFDD"/>
<path d="M180.106 15.0176C175.31 15.0176 171.427 18.9058 171.427 23.6992C171.427 28.4927 175.31 32.3784 180.106 32.3784C184.902 32.3784 188.785 28.4902 188.785 23.6992C188.785 18.9033 184.902 15.0176 180.106 15.0176ZM180.106 28.745C177.318 28.745 175.058 26.4892 175.058 23.7017C175.058 20.9142 177.318 18.6535 180.106 18.6535C182.893 18.6535 185.154 20.9142 185.154 23.7017C185.154 26.4867 182.893 28.745 180.106 28.745Z" fill="#211D1D"/>
<path d="M181.375 15.8661H178.753L179.389 11.4189H181.056L181.375 15.8661Z" fill="#211D1D"/>
<path d="M178.713 30.9512H181.335L180.699 35.3959H179.032L178.713 30.9512Z" fill="#211D1D"/>
<path d="M187.584 24.738V22.1162L192.031 22.7519V24.4189L187.584 24.738Z" fill="#211D1D"/>
<path d="M172.499 22.0771V24.699L168.055 24.0633V22.3962L172.499 22.0771Z" fill="#211D1D"/>
<path d="M184.439 29.6827L186.292 27.8301L188.988 31.4215L187.808 32.6013L184.439 29.6827Z" fill="#211D1D"/>
<path d="M175.648 17.135L173.796 18.9875L171.1 15.3937L172.279 14.2139L175.648 17.135Z" fill="#211D1D"/>
<path d="M173.768 27.8008L175.621 29.6534L172.029 32.3494L170.85 31.1696L173.768 27.8008Z" fill="#211D1D"/>
<path d="M186.317 19.0154L184.465 17.1628L188.059 14.4668L189.239 15.6466L186.317 19.0154Z" fill="#211D1D"/>
<path d="M184.043 16.8754L181.606 15.9157L183.825 12.0127L185.376 12.6212L184.043 16.8754Z" fill="#211D1D"/>
<path d="M176.048 29.9395L178.487 30.8991L176.269 34.8046L174.718 34.1937L176.048 29.9395Z" fill="#211D1D"/>
<path d="M186.58 27.4075L187.54 24.9688L191.445 27.1874L190.834 28.7382L186.58 27.4075Z" fill="#211D1D"/>
<path d="M173.513 19.4103L172.553 21.8466L168.647 19.628L169.258 18.0771L173.513 19.4103Z" fill="#211D1D"/>
<path d="M181.837 30.8548L184.241 29.8086L185.433 34.137L183.905 34.8049L181.837 30.8548Z" fill="#211D1D"/>
<path d="M178.253 15.9627L175.851 17.0065L174.659 12.678L176.188 12.0127L178.253 15.9627Z" fill="#211D1D"/>
<path d="M172.597 25.2002L173.643 27.6019L169.315 28.794L168.649 27.2655L172.597 25.2002Z" fill="#211D1D"/>
<path d="M187.492 21.6168L186.448 19.2127L190.777 18.0205L191.442 19.5491L187.492 21.6168Z" fill="#211D1D"/>
<path d="M218.548 28.714C209.599 31.9912 205.008 41.8997 208.286 50.8485C211.56 59.7923 221.466 64.3903 230.415 61.1131C239.364 57.8358 243.954 47.9274 240.68 38.986C237.4 30.0373 227.496 25.4367 218.548 28.714ZM227.219 52.3919C223.089 53.9056 218.515 51.7884 217.002 47.6553C215.488 43.5247 217.61 38.9489 221.741 37.4377C225.871 35.9239 230.447 38.0461 231.958 42.1767C233.475 46.3073 231.35 50.8781 227.219 52.3919Z" fill="white"/>
<path d="M221.494 29.4283L216.605 31.219L214.752 22.4879L217.861 21.3477L221.494 29.4283Z" fill="white"/>
<path d="M226.846 59.3962L231.736 57.6055L233.588 66.3366L230.479 67.4743L226.846 59.3962Z" fill="white"/>
<path d="M239.154 41.7386L237.363 36.8487L246.094 34.9961L247.235 38.1076L239.154 41.7386Z" fill="white"/>
<path d="M209.186 47.0859L210.977 51.9734L202.246 53.8284L201.105 50.7169L209.186 47.0859Z" fill="white"/>
<path d="M236.654 53.1158L238.846 48.3916L246.33 53.2568L244.935 56.262L236.654 53.1158Z" fill="white"/>
<path d="M211.688 35.7062L209.496 40.4304L202.012 35.5677L203.407 32.5625L211.688 35.7062Z" fill="white"/>
<path d="M215.468 56.8984L220.193 59.0874L215.33 66.5719L212.322 65.1794L215.468 56.8984Z" fill="white"/>
<path d="M232.877 31.926L228.152 29.7345L233.015 22.25L236.02 23.645L232.877 31.926Z" fill="white"/>
<path d="M237.057 46.6512C238.023 39.7019 233.173 33.2853 226.224 32.3192C219.275 31.3531 212.858 36.2034 211.892 43.1526C210.926 50.1019 215.776 56.5185 222.725 57.4846C229.675 58.4507 236.091 53.6004 237.057 46.6512Z" stroke="#211D1D" stroke-width="0.714591" stroke-miterlimit="10" stroke-linecap="round" stroke-linejoin="round"/>
<path d="M273.121 86.4741C273.925 78.2574 267.916 70.9447 259.7 70.1405C251.483 69.3364 244.17 75.3453 243.366 83.5619C242.562 91.7786 248.571 99.0914 256.788 99.8955C265.004 100.7 272.317 94.6907 273.121 86.4741Z" stroke="#211D1D" stroke-width="0.442912" stroke-miterlimit="10"/>
<path d="M258.529 72.7188V86.8097L262.529 78.0489" stroke="#211D1D" stroke-width="0.38083" stroke-miterlimit="10"/>
<path d="M81.4626 135.394H9.84277L17.7156 99.2178H89.3355L81.4626 135.394Z" fill="#E58FA2"/>
<path d="M239.572 162.74C246.694 160.083 250.32 152.17 247.67 145.065C245.019 137.961 237.097 134.356 229.975 137.013C222.853 139.669 219.227 147.582 221.878 154.687C224.528 161.791 232.45 165.396 239.572 162.74Z" fill="#F3D63B"/>
<path d="M243.688 139.406C243.864 144.002 242.519 148.573 239.291 152.248C234.96 157.183 228.764 158.412 222.927 156.824C224.131 158.892 225.878 160.663 228.074 161.882C235.502 166.008 244.799 162.54 247.71 154.556C249.691 149.129 247.965 143.052 243.688 139.406Z" fill="#211D1D"/>
<path d="M189.957 180.861H241.72C237.706 171.949 227.263 165.409 217.661 167.235C217.036 163.839 212.9 160.74 209.739 159.352C203.986 156.824 196.739 157.618 192.081 161.838C187.424 166.06 186.59 175.553 189.957 180.861Z" fill="#75CFDD"/>
<path d="M117.352 125.053C118.106 132.547 124.443 139.112 131.908 140.128C139.372 141.145 147.235 136.512 149.963 129.492C152.175 133.111 155.368 135.743 159.486 136.759C163.604 137.773 168.111 137.101 171.752 134.924C172.988 134.185 174.131 133.277 175.068 132.181C176.322 130.717 177.178 128.963 178.022 127.229" stroke="#211D1D" stroke-width="0.621838" stroke-miterlimit="10"/>
<path d="M102.749 136.045C108.91 136.48 114.428 140.136 118.754 144.544C128.787 154.769 133.723 169.767 131.722 183.952" stroke="#211D1D" stroke-width="0.621838" stroke-miterlimit="10"/>
<path d="M181.126 130.104C178.521 134.155 177.445 139.164 178.155 143.925C178.865 148.689 181.356 153.166 185.029 156.28" stroke="#211D1D" stroke-width="0.621838" stroke-miterlimit="10"/>
<path d="M17.7158 99.2178L52.4152 128.325L89.3357 99.2178" stroke="#211D1D" stroke-width="0.998018" stroke-miterlimit="10"/>
<path d="M280.501 130.82C281.887 119.784 274.063 109.713 263.026 108.327C251.99 106.941 241.919 114.765 240.533 125.801C239.147 136.838 246.971 146.909 258.007 148.295C269.044 149.681 279.115 141.857 280.501 130.82Z" fill="#211D1D"/>
<path d="M254.978 119.146H203.707C200.16 119.146 197.256 116.243 197.256 112.696C197.256 109.149 200.16 106.245 203.707 106.245H254.978C258.525 106.245 261.428 109.149 261.428 112.696C261.428 116.243 258.525 119.146 254.978 119.146Z" fill="#E58FA2"/>
<path d="M208.478 109.411L209.544 111.573L211.931 111.919L210.204 113.604L210.612 115.98L208.478 114.86L206.341 115.98L206.749 113.604L205.022 111.919L207.409 111.573L208.478 109.411Z" fill="white"/>
<path d="M218.382 109.411L219.448 111.573L221.837 111.919L220.109 113.604L220.517 115.98L218.382 114.86L216.245 115.98L216.653 113.604L214.927 111.919L217.314 111.573L218.382 109.411Z" fill="white"/>
<path d="M228.283 109.411L229.352 111.573L231.739 111.919L230.01 113.604L230.418 115.98L228.283 114.86L226.149 115.98L226.555 113.604L224.828 111.919L227.215 111.573L228.283 109.411Z" fill="white"/>
<path d="M238.189 109.411L239.257 111.573L241.644 111.919L239.915 113.604L240.323 115.98L238.189 114.86L236.054 115.98L236.462 113.604L234.733 111.919L237.12 111.573L238.189 109.411Z" fill="white"/>
<path d="M248.093 109.411L249.162 111.573L251.548 111.919L249.822 113.604L250.228 115.98L248.093 114.86L245.958 115.98L246.367 113.604L244.638 111.919L247.025 111.573L248.093 109.411Z" fill="white"/>
<path d="M213.237 116.908C213.099 120.215 210.578 123.28 207.36 124.054C209.581 124.811 212.117 124.598 214.182 123.483C216.247 122.367 217.815 120.366 218.402 118.093" fill="#E58FA2"/>
<path d="M23.8288 126.794C24.4521 140.373 13.4751 153.489 0 155.27C17.952 154.778 35.1248 143.111 42.1987 126.604" fill="#E58FA2"/>
<path d="M133.442 92.8347C134.326 91.9508 134.326 90.5179 133.442 89.6341C132.559 88.7503 131.126 88.7503 130.242 89.6341C129.358 90.5179 129.358 91.9508 130.242 92.8347C131.126 93.7185 132.559 93.7185 133.442 92.8347Z" fill="white"/>
<path d="M177.29 85.5596V113.333" stroke="#F5F5F3" stroke-width="0.973012" stroke-miterlimit="10" stroke-linecap="round" stroke-linejoin="round"/>
<path d="M170.637 100.586L184.421 100.687" stroke="#F5F5F3" stroke-width="0.973012" stroke-miterlimit="10" stroke-linecap="round" stroke-linejoin="round"/>
<path d="M177.291 89.7646C177.261 91.1745 178.127 94.9019 178.604 96.2301C179.42 98.4933 181.597 100.042 183.892 100.761C181.958 101.132 180.343 101.691 179.153 103.262C178.649 103.927 178.305 104.704 178.053 105.5C177.414 107.514 177.35 109.656 177.291 111.768V89.7646Z" fill="#F5F5F3"/>
<path d="M177.238 89.584C177.268 90.9938 176.402 94.7212 175.925 96.0495C175.109 98.3126 172.932 99.861 170.637 100.581C172.571 100.952 174.186 101.511 175.376 103.081C175.88 103.747 176.224 104.523 176.476 105.32C177.115 107.333 177.179 109.475 177.238 111.587V89.584Z" fill="#F5F5F3"/>
<path d="M129.024 103.131C129.148 102.123 128.433 101.206 127.425 101.082C126.418 100.958 125.501 101.674 125.376 102.681C125.252 103.688 125.968 104.606 126.975 104.73C127.983 104.854 128.9 104.138 129.024 103.131Z" fill="#F5F5F3"/>
<path d="M113.822 105.112C114.43 105.112 114.923 104.62 114.923 104.012C114.923 103.404 114.43 102.911 113.822 102.911C113.214 102.911 112.722 103.404 112.722 104.012C112.722 104.62 113.214 105.112 113.822 105.112Z" fill="#F5F5F3"/>
<path d="M121.456 115.13C122.103 115.13 122.628 114.605 122.628 113.958C122.628 113.31 122.103 112.785 121.456 112.785C120.808 112.785 120.283 113.31 120.283 113.958C120.283 114.605 120.808 115.13 121.456 115.13Z" fill="#F5F5F3"/>
<path d="M133.331 17.4288C134.772 15.8039 134.623 13.3183 132.998 11.877C131.374 10.4357 128.888 10.5844 127.447 12.2093C126.005 13.8342 126.154 16.3198 127.779 17.7611C129.404 19.2024 131.889 19.0537 133.331 17.4288Z" stroke="#211D1D" stroke-width="0.38083" stroke-miterlimit="10"/>
<path d="M117.757 38.4634C117.757 39.5493 116.876 40.4298 115.791 40.4298C114.705 40.4298 113.824 39.5493 113.824 38.4634C113.824 37.3776 114.705 36.4971 115.791 36.4971C116.876 36.4946 117.757 37.3776 117.757 38.4634Z" stroke="#211D1D" stroke-width="0.38083" stroke-miterlimit="10"/>
<path d="M110.714 16.3072C110.714 17.1234 110.051 17.7863 109.235 17.7863C108.419 17.7863 107.756 17.1234 107.756 16.3072C107.756 15.491 108.419 14.8281 109.235 14.8281C110.054 14.8281 110.714 15.491 110.714 16.3072Z" stroke="#211D1D" stroke-width="0.38083" stroke-miterlimit="10"/>
<path d="M45.5471 73.1661C46.4106 72.3026 46.4106 70.9025 45.5471 70.039C44.6836 69.1755 43.2835 69.1755 42.42 70.039C41.5565 70.9025 41.5565 72.3026 42.42 73.1661C43.2835 74.0296 44.6836 74.0296 45.5471 73.1661Z" stroke="#211D1D" stroke-width="0.38083" stroke-miterlimit="10"/>
<path d="M35.8913 63.7767C35.8913 64.5212 35.2878 65.1247 34.5433 65.1247C33.7988 65.1247 33.1953 64.5212 33.1953 63.7767C33.1953 63.0322 33.7988 62.4287 34.5433 62.4287C35.2878 62.4287 35.8913 63.0322 35.8913 63.7767Z" stroke="#211D1D" stroke-width="0.38083" stroke-miterlimit="10"/>
<path d="M153.586 196.553C154.69 194.755 154.127 192.402 152.328 191.298C150.529 190.194 148.176 190.757 147.072 192.556C145.968 194.354 146.531 196.707 148.33 197.811C150.129 198.915 152.482 198.352 153.586 196.553Z" stroke="#211D1D" stroke-width="0.38083" stroke-miterlimit="10"/>
<path d="M277.683 164.28C279.78 164.041 281.287 162.148 281.049 160.051C280.811 157.954 278.917 156.447 276.82 156.686C274.723 156.924 273.217 158.817 273.455 160.914C273.693 163.011 275.586 164.518 277.683 164.28Z" stroke="#211D1D" stroke-width="0.38083" stroke-miterlimit="10"/>
<path d="M130.125 206.838C130.125 207.753 129.383 208.493 128.47 208.493C127.555 208.493 126.815 207.751 126.815 206.838C126.815 205.923 127.557 205.184 128.47 205.184C129.383 205.184 130.125 205.926 130.125 206.838Z" stroke="#211D1D" stroke-width="0.38083" stroke-miterlimit="10"/>
<path d="M170.853 191.835C170.853 192.443 170.36 192.936 169.752 192.936C169.144 192.936 168.651 192.443 168.651 191.835C168.651 191.227 169.144 190.734 169.752 190.734C170.36 190.732 170.853 191.227 170.853 191.835Z" stroke="#211D1D" stroke-width="0.38083" stroke-miterlimit="10"/>
<path d="M263.63 165.08C263.63 165.689 263.138 166.181 262.529 166.181C261.921 166.181 261.429 165.689 261.429 165.08C261.429 164.472 261.921 163.979 262.529 163.979C263.138 163.979 263.63 164.472 263.63 165.08Z" stroke="#211D1D" stroke-width="0.38083" stroke-miterlimit="10"/>
<path d="M238.179 161.325C239.617 161.325 240.783 160.159 240.783 158.721C240.783 157.282 239.617 156.116 238.179 156.116C236.74 156.116 235.574 157.282 235.574 158.721C235.574 160.159 236.74 161.325 238.179 161.325Z" stroke="#211D1D" stroke-width="0.362626" stroke-miterlimit="10"/>
<path d="M286 146.972C286 147.954 285.204 148.75 284.222 148.75C283.24 148.75 282.443 147.954 282.443 146.972C282.443 145.99 283.24 145.193 284.222 145.193C285.204 145.193 286 145.99 286 146.972Z" stroke="#211D1D" stroke-width="0.362626" stroke-miterlimit="10"/>
<path d="M248.032 135.317L248.596 132.499L254.291 128.125C254.706 127.801 255.024 127.522 255.244 127.289C255.477 127.056 255.639 126.835 255.73 126.628C255.821 126.421 255.866 126.213 255.866 126.006C255.866 125.708 255.749 125.468 255.516 125.287C255.296 125.105 254.998 125.014 254.622 125.014C254.22 125.014 253.831 125.131 253.455 125.364C253.093 125.585 252.762 125.902 252.464 126.317L249.412 124.431C249.943 123.511 250.727 122.779 251.764 122.235C252.814 121.677 254 121.399 255.322 121.399C256.332 121.399 257.233 121.567 258.024 121.904C258.827 122.241 259.456 122.701 259.909 123.284C260.363 123.867 260.59 124.535 260.59 125.287C260.59 125.844 260.486 126.382 260.279 126.9C260.084 127.405 259.747 127.924 259.268 128.455C258.801 128.974 258.16 129.544 257.343 130.166L253.144 133.354L252.6 131.76H259.657L258.937 135.317H248.032ZM260.228 132.985L260.811 130.069L268.101 121.71H272.961L265.885 130.069L263.727 129.427H274.264L273.544 132.985H260.228ZM266.818 135.317L267.285 132.985L268.218 129.427L268.626 127.347H272.864L271.27 135.317H266.818Z" fill="#F5F5F3"/>
</svg>
